<svg width="509.287" height="509.287" xmlns="http://www.w3.org/2000/svg" xml:space="preserve" version="1.1">

 <g>
  <title>Layer 1</title>
  <circle id="svg_1" fill="#ffffff" r="254.644" cy="254.644" cx="254.644"/>
  <path id="svg_2" fill="#6f04ff" d="m409.939,402.819c-32.212,-43.062 -89.854,-71.883 -155.295,-71.883s-123.084,28.82 -155.296,71.883c-16.275,21.701 4.408,51.539 30.517,45.097c37.637,-9.494 80.021,-14.919 124.779,-14.919s87.142,5.425 124.779,14.919c26.108,6.442 46.452,-23.397 30.516,-45.097z"/>
  <circle id="svg_3" fill="#6f04ff" r="193.272" cy="212.938" cx="254.644"/>
  <circle id="svg_4" fill="#ff0000" r="10.172" cy="54.252" cx="254.644"/>
  <circle stroke="null" id="svg_6" fill="#999999" r="127.99199" cy="212.938" cx="251.64399"/>
  <path id="svg_7" d="m250.644,298.315c-44.95967,0 -81.377,-36.41733 -81.377,-81.377c0,-44.95967 36.41733,-81.377 81.377,-81.377c44.95967,0 81.377,36.41733 81.377,81.377c0,44.95967 -36.41733,81.377 -81.377,81.377z" opacity="undefined" fill="#333333"/>
  <circle id="svg_8" fill="#cccccc" r="50.522" cy="190.938" cx="247.644"/>
  <g id="svg_9"/>
  <g id="svg_10"/>
  <g id="svg_11"/>
  <g id="svg_12"/>
  <g id="svg_13"/>
  <g id="svg_14"/>
  <g id="svg_15"/>
  <g id="svg_16"/>
  <g id="svg_17"/>
  <g id="svg_18"/>
  <g id="svg_19"/>
  <g id="svg_20"/>
  <g id="svg_21"/>
  <g id="svg_22"/>
  <g id="svg_23"/>
 </g>
</svg>